<?xml version="1.0" encoding="UTF-8"?>
<svg version="1.1" xmlns="http://www.w3.org/2000/svg" width="432" height="428">
<path d="M0 0 C5.2385089 4.07439581 9.29942803 7.62735841 11.890625 13.796875 C11.890625 14.786875 11.890625 15.776875 11.890625 16.796875 C10.776875 16.631875 9.663125 16.466875 8.515625 16.296875 C-13.67756908 13.63994331 -29.04117965 25.4398994 -45.84228516 38.46240234 C-77.37006617 62.88401089 -77.37006617 62.88401089 -92.109375 61.796875 C-95.56666532 61.07890473 -98.92329678 60.02767138 -102.28515625 58.95507812 C-105.95877594 57.90699514 -107.8596933 57.70702414 -111.49609375 59.015625 C-114.38278196 60.9832331 -115.41022028 62.80312621 -117.109375 65.796875 C-118.099375 65.796875 -119.089375 65.796875 -120.109375 65.796875 C-118.30882837 52.10257672 -105.1908188 40.03603733 -94.96484375 31.92578125 C-90.50369406 28.59975309 -85.88890737 25.64117885 -81.109375 22.796875 C-80.31789063 22.29542969 -79.52640625 21.79398438 -78.7109375 21.27734375 C-69.55065956 15.80140473 -59.23846063 12.95930502 -49.109375 9.796875 C-55.91586809 10.28841713 -61.49821493 11.7102006 -67.796875 14.296875 C-68.66175537 14.64709717 -69.52663574 14.99731934 -70.41772461 15.3581543 C-79.34146549 19.10329988 -88.31885492 23.7729308 -95.109375 30.796875 C-96.0684375 31.23 -96.0684375 31.23 -97.046875 31.671875 C-99.81873026 33.18379605 -101.16725145 35.32508139 -103.109375 37.796875 C-104.77207787 39.13514804 -106.43853681 40.46877285 -108.109375 41.796875 C-108.66625 42.539375 -109.223125 43.281875 -109.796875 44.046875 C-110.23 44.624375 -110.663125 45.201875 -111.109375 45.796875 C-111.769375 45.796875 -112.429375 45.796875 -113.109375 45.796875 C-113.41875 46.580625 -113.728125 47.364375 -114.046875 48.171875 C-115.109375 50.796875 -115.109375 50.796875 -116.109375 52.796875 C-116.769375 52.796875 -117.429375 52.796875 -118.109375 52.796875 C-118.34527344 53.47492188 -118.58117187 54.15296875 -118.82421875 54.8515625 C-120.41108864 58.48834029 -122.47690285 61.627683 -124.671875 64.921875 C-127.84430489 69.62001466 -127.84430489 69.62001466 -130.109375 74.796875 C-130.769375 74.796875 -131.429375 74.796875 -132.109375 74.796875 C-132.480625 76.034375 -132.480625 76.034375 -132.859375 77.296875 C-134.27666259 81.26528026 -136.2248621 85.02784919 -138.109375 88.796875 C-119.794375 89.291875 -119.794375 89.291875 -101.109375 89.796875 C-98.85548064 97.68550526 -98.85548064 97.68550526 -98.84375 102.40625 C-98.84117187 103.40785156 -98.83859375 104.40945313 -98.8359375 105.44140625 C-98.84367188 106.46621094 -98.85140625 107.49101562 -98.859375 108.546875 C-98.85164062 109.58714844 -98.84390625 110.62742187 -98.8359375 111.69921875 C-98.83851563 112.69566406 -98.84109375 113.69210937 -98.84375 114.71875 C-98.84600586 115.62206055 -98.84826172 116.52537109 -98.85058594 117.45605469 C-99.109375 119.796875 -99.109375 119.796875 -101.109375 122.796875 C-103.19273376 123.17160511 -103.19273376 123.17160511 -105.81616211 123.1710968 C-106.8088913 123.17811111 -107.80162048 123.18512543 -108.82443237 123.19235229 C-109.91748688 123.18470856 -111.01054138 123.17706482 -112.13671875 123.16918945 C-113.85871994 123.17466545 -113.85871994 123.17466545 -115.61550903 123.18025208 C-119.42611289 123.18838577 -123.23629527 123.17472367 -127.046875 123.16015625 C-129.68481445 123.15963798 -132.32275429 123.16015438 -134.96069336 123.16166687 C-140.49565708 123.16255037 -146.03049846 123.15145783 -151.56542969 123.13305664 C-157.96953384 123.11188808 -164.3734587 123.10837877 -170.77759075 123.1146186 C-176.93176121 123.12030846 -183.08585823 123.1145672 -189.24002075 123.10344505 C-191.86198674 123.09958478 -194.48395816 123.09844824 -197.10592651 123.1000309 C-200.76473406 123.10040009 -204.42326508 123.08782213 -208.08203125 123.0715332 C-209.17508575 123.07401062 -210.26814026 123.07648804 -211.39431763 123.07904053 C-212.38704681 123.07195572 -213.379776 123.06487091 -214.40258789 123.05757141 C-215.26831924 123.05551854 -216.1340506 123.05346567 -217.02601624 123.05135059 C-219.109375 122.796875 -219.109375 122.796875 -221.109375 120.796875 C-221.35229492 118.87670898 -221.35229492 118.87670898 -221.33984375 116.54296875 C-221.33791016 115.68767578 -221.33597656 114.83238281 -221.33398438 113.95117188 C-221.32173828 113.05462891 -221.30949219 112.15808594 -221.296875 111.234375 C-221.2959082 109.93016602 -221.2959082 109.93016602 -221.29492188 108.59960938 C-221.18940034 92.87690034 -221.18940034 92.87690034 -219.109375 90.796875 C-216.7336898 90.7084783 -214.38728826 90.68157195 -212.01171875 90.69921875 C-210.94843102 90.70134117 -210.94843102 90.70134117 -209.86366272 90.70350647 C-207.59135788 90.70912057 -205.31915025 90.72167537 -203.046875 90.734375 C-201.50976704 90.73938819 -199.97265755 90.74395141 -198.43554688 90.74804688 C-194.66011858 90.75909458 -190.88476329 90.77636859 -187.109375 90.796875 C-190.4381868 83.39951545 -197.99090941 81.49770459 -205.109375 78.796875 C-206.86048169 78.09128201 -208.61051134 77.38300932 -210.359375 76.671875 C-213.90076528 75.23392794 -217.47590381 73.98352889 -221.109375 72.796875 C-221.26792969 74.05242187 -221.42648438 75.30796875 -221.58984375 76.6015625 C-224.66575198 99.38058678 -236.23091812 113.07621561 -254.109375 127.16015625 C-262.13062836 134.21008596 -267.19676265 143.63328364 -270.109375 153.796875 C-273.78535104 153.2442773 -275.16938929 152.01771574 -277.421875 149.109375 C-289.27342437 132.92500113 -293.05773522 115.34603047 -290.046875 95.609375 C-288.19434892 84.79681763 -283.69753368 73.19161492 -274.99609375 66.06640625 C-274.27035156 65.58558594 -273.54460937 65.10476562 -272.796875 64.609375 C-272.07886719 64.12082031 -271.36085938 63.63226563 -270.62109375 63.12890625 C-259.98180293 57.48660739 -246.35687591 58.82296831 -235.15820312 62.15429688 C-220.85807672 66.63927456 -206.87623271 71.88359384 -193.109375 77.796875 C-194.74899886 74.44962444 -196.42568703 71.12215875 -198.109375 67.796875 C-198.686875 66.63414062 -199.264375 65.47140625 -199.859375 64.2734375 C-200.4575 63.10554688 -201.055625 61.93765625 -201.671875 60.734375 C-202.23003906 59.62964844 -202.78820312 58.52492188 -203.36328125 57.38671875 C-205.41451283 54.34428801 -205.75843432 54.5659928 -209.109375 53.796875 C-210.60816461 52.96261558 -212.09564886 52.10787321 -213.57421875 51.23828125 C-219.65977656 48.13358696 -224.97645457 48.35859099 -231.671875 48.734375 C-241.69381372 49.25867366 -248.04432152 48.37584922 -256.3046875 42.5390625 C-259.65842534 39.26005976 -262.28095763 35.73903823 -264.984375 31.921875 C-269.19365069 26.17530425 -273.16577462 20.86175112 -279.109375 16.796875 C-280.33527344 15.93642578 -280.33527344 15.93642578 -281.5859375 15.05859375 C-288.42086596 10.77445271 -295.09060429 9.15908894 -303.109375 10.796875 C-304.81153153 12.08459342 -306.48379097 13.41375096 -308.109375 14.796875 C-309.099375 14.796875 -310.089375 14.796875 -311.109375 14.796875 C-311.0854009 8.83930991 -310.73268801 3.92303626 -306.44140625 -0.47265625 C-288.25636032 -13.96675231 -265.92719935 -14.98489807 -244.171875 -12.453125 C-232.47643652 -10.65285837 -218.88915415 -7.07933789 -211.328125 2.75 C-205.47063763 12.58757494 -205.96577759 26.05662678 -207.796875 37.0546875 C-208.41216043 40.66309733 -208.41216043 40.66309733 -207 43.15234375 C-206.45859375 43.75691406 -205.9171875 44.36148438 -205.359375 44.984375 C-196.90194516 54.73505261 -182.109375 76.4810864 -182.109375 89.796875 C-177.159375 89.796875 -172.209375 89.796875 -167.109375 89.796875 C-166.98691406 88.6934375 -166.86445313 87.59 -166.73828125 86.453125 C-166.10004694 81.34725055 -165.08297074 76.33457021 -164.046875 71.296875 C-163.86060547 70.3790625 -163.67433594 69.46125 -163.48242188 68.515625 C-163.02739373 66.27548646 -162.56966233 64.03593774 -162.109375 61.796875 C-163.099375 62.291875 -163.099375 62.291875 -164.109375 62.796875 C-178.43184624 63.94342454 -178.43184624 63.94342454 -184.3828125 60.296875 C-191.67233254 53.96389832 -200.57821387 39.19607301 -201.27734375 29.45703125 C-201.28378906 28.59980469 -201.29023438 27.74257812 -201.296875 26.859375 C-201.31105469 26.00472656 -201.32523437 25.15007812 -201.33984375 24.26953125 C-201.07565469 21.43509609 -200.80496526 20.09637412 -199.109375 17.796875 C-193.85051003 14.1326336 -188.79637204 12.71191357 -182.546875 11.546875 C-181.6693457 11.37994141 -180.79181641 11.21300781 -179.88769531 11.04101562 C-160.17410357 7.5117281 -160.17410357 7.5117281 -151.7890625 12.5859375 C-147.97906523 15.33267972 -144.75576603 17.82728845 -142.109375 21.796875 C-141.00078125 21.49652344 -139.8921875 21.19617188 -138.75 20.88671875 C-137.28658957 20.50210447 -135.8230405 20.11801743 -134.359375 19.734375 C-133.62976563 19.53521484 -132.90015625 19.33605469 -132.1484375 19.13085938 C-125.59583406 17.43313939 -125.59583406 17.43313939 -122.109375 18.796875 C-119.37687581 22.89562378 -119.6248223 25.98920363 -120.109375 30.796875 C-121.01384892 35.22738399 -122.22557631 38.71974534 -125.109375 42.234375 C-129.55864384 44.55170252 -134.17155148 45.13965155 -139.109375 45.796875 C-139.16923584 46.40055908 -139.22909668 47.00424316 -139.29077148 47.6262207 C-139.73133669 52.05277084 -140.17871484 56.47837465 -140.64453125 60.90234375 C-140.77504883 62.16014648 -140.77504883 62.16014648 -140.90820312 63.44335938 C-141.08522926 65.1493668 -141.26495436 66.85509615 -141.44726562 68.56054688 C-141.93781717 73.33696984 -142.20683216 77.99548573 -142.109375 82.796875 C-141.61630859 81.84941406 -141.61630859 81.84941406 -141.11328125 80.8828125 C-138.11778752 75.24901128 -134.92825253 69.78979009 -131.484375 64.421875 C-131.11256104 63.83970215 -130.74074707 63.2575293 -130.35766602 62.65771484 C-128.11885503 59.2038333 -125.68551424 56.00213456 -123.109375 52.796875 C-122.38847175 51.62935155 -121.69507011 50.44377799 -121.046875 49.234375 C-119.53048551 46.54400655 -117.94939445 44.25023427 -116.109375 41.796875 C-114.99137275 38.44286825 -114.89464407 35.63911054 -114.734375 32.109375 C-114.13361794 23.27096427 -112.48699893 17.32281576 -106.109375 10.796875 C-104.11609581 9.45351508 -102.11480932 8.12202064 -100.109375 6.796875 C-97.50110577 4.89226925 -94.93206377 2.93666418 -92.359375 0.984375 C-62.72564974 -21.32903387 -31.24499153 -22.13841109 0 0 Z M-263.109375 6.796875 C-260.34714222 9.55910778 -257.90230883 9.37543791 -254.109375 9.796875 C-257.29699865 7.67179256 -259.37449723 7.2948587 -263.109375 6.796875 Z M-254.109375 9.796875 C-251.19236661 12.10872314 -248.22909368 13.84792861 -244.921875 15.546875 C-239.49879452 18.45752701 -234.84889337 21.8954422 -230.109375 25.796875 C-229.243125 26.43625 -228.376875 27.075625 -227.484375 27.734375 C-224.7147916 30.13953953 -222.40440189 32.77380941 -220.0234375 35.55859375 C-217.93640751 37.99914106 -215.80855315 40.39971841 -213.671875 42.796875 C-212.99253906 43.56 -212.31320313 44.323125 -211.61328125 45.109375 C-210.86884766 45.9446875 -210.86884766 45.9446875 -210.109375 46.796875 C-208.74658949 43.86833318 -208.74658949 43.86833318 -210.21484375 41.49609375 C-219.97494647 27.59046287 -234.14958489 15.87444213 -250.109375 9.796875 C-251.429375 9.796875 -252.749375 9.796875 -254.109375 9.796875 Z M-153.109375 43.796875 C-154.35489199 48.61086281 -154.23626544 53.32034387 -154.20703125 58.25390625 C-154.2056163 59.15686935 -154.20420135 60.05983246 -154.20274353 60.99015808 C-154.19716323 63.86326463 -154.18461434 66.73629216 -154.171875 69.609375 C-154.16685745 71.56184783 -154.16229499 73.51432189 -154.15820312 75.46679688 C-154.14720025 80.24351985 -154.12994918 85.02018404 -154.109375 89.796875 C-153.449375 89.796875 -152.789375 89.796875 -152.109375 89.796875 C-151.27106605 84.81676119 -150.43496309 79.8362837 -149.60083008 74.85546875 C-149.31724458 73.16396277 -149.03307494 71.47255462 -148.74829102 69.78125 C-148.33713599 67.33880191 -147.92813977 64.89600024 -147.51953125 62.453125 C-147.39344986 61.70695923 -147.26736847 60.96079346 -147.13746643 60.1920166 C-146.33937677 55.4044829 -145.68326134 50.61656776 -145.109375 45.796875 C-148.19747195 44.03224817 -149.34249636 43.796875 -153.109375 43.796875 Z M-244.109375 75.796875 C-251.79922908 81.25113457 -251.79922908 81.25113457 -257.109375 88.796875 C-258.099375 89.126875 -259.089375 89.456875 -260.109375 89.796875 C-262.18643982 92.57858396 -262.18643982 92.57858396 -264.109375 95.796875 C-264.7075 96.704375 -265.305625 97.611875 -265.921875 98.546875 C-266.5096875 99.660625 -266.5096875 99.660625 -267.109375 100.796875 C-266.779375 101.456875 -266.449375 102.116875 -266.109375 102.796875 C-264.1916681 100.56859607 -262.27518261 98.33928595 -260.359375 96.109375 C-259.82054687 95.48353516 -259.28171875 94.85769531 -258.7265625 94.21289062 C-256.39092164 91.49272353 -254.09305389 88.77589893 -251.890625 85.9453125 C-249.89145794 83.53403644 -247.79236037 82.3619498 -245.109375 80.796875 C-245.109375 80.136875 -245.109375 79.476875 -245.109375 78.796875 C-244.47 78.549375 -243.830625 78.301875 -243.171875 78.046875 C-239.10949149 76.38875928 -235.11212594 74.5933166 -231.109375 72.796875 C-236.2394877 71.07536067 -239.6303046 73.18521159 -244.109375 75.796875 Z " fill="#4D6F46" transform="translate(376.109375,171.203125)"/>
<path d="M0 0 C0.99265869 -0.00563965 1.98531738 -0.0112793 3.00805664 -0.01708984 C4.63988892 -0.01101715 4.63988892 -0.01101715 6.3046875 -0.00482178 C7.45122803 -0.00832642 8.59776855 -0.01183105 9.77905273 -0.01544189 C13.57932542 -0.02426409 17.37941283 -0.01840822 21.1796875 -0.01165771 C23.81380245 -0.01300422 26.44791715 -0.01494463 29.08203125 -0.01745605 C34.60679136 -0.02109541 40.13149801 -0.01629743 45.65625 -0.0067749 C52.04501123 0.00410962 58.43364482 0.00058402 64.82240295 -0.01042771 C70.96641739 -0.02059404 77.11037519 -0.01952209 83.25439453 -0.01366425 C85.86995461 -0.01232722 88.48551793 -0.01397729 91.10107422 -0.01862335 C94.75236726 -0.02368537 98.40341295 -0.01598265 102.0546875 -0.00482178 C103.14257568 -0.00887024 104.23046387 -0.0129187 105.35131836 -0.01708984 C106.34397705 -0.0114502 107.33663574 -0.00581055 108.359375 0 C109.65464111 0.00113108 109.65464111 0.00113108 110.97607422 0.002285 C113.1796875 0.25396729 113.1796875 0.25396729 116.1796875 2.25396729 C116.49292704 4.7721675 116.60568255 6.98703901 116.5546875 9.50396729 C116.54453613 10.21907471 116.53438477 10.93418213 116.52392578 11.67095947 C116.08812835 26.94751738 111.54478999 40.8070502 100.859375 51.99615479 C85.15584176 65.22741165 63.74973858 66.31892618 44.1796875 65.25396729 C28.53517673 63.84831978 15.12067541 60.19136659 4.1796875 48.25396729 C-4.98251013 36.97893529 -7.91019177 23.92965331 -8.1328125 9.69146729 C-8.15053711 8.98812256 -8.16826172 8.28477783 -8.18652344 7.56011963 C-8.18359375 5.56256104 -8.18359375 5.56256104 -7.8203125 2.25396729 C-4.58660716 0.09816373 -3.72689564 0.00325447 0 0 Z " fill="#CDBEA1" transform="translate(161.8203125,296.74603271484375)"/>
<path d="M0 0 C2.14140452 1.62932953 4.17840064 3.32802533 6.2109375 5.08984375 C6.83097656 5.55648437 7.45101562 6.023125 8.08984375 6.50390625 C13.60383604 10.76742513 18.60237991 16.47771214 19.54248047 23.60253906 C19.45750165 32.11587211 18.45844129 40.42600131 17.23950195 48.83886719 C16.8943238 51.24350126 16.57267933 53.6505902 16.25195312 56.05859375 C16.03525967 57.59264711 15.81721173 59.12650989 15.59765625 60.66015625 C15.50377121 61.3777713 15.40988617 62.09538635 15.31315613 62.83474731 C15.01049805 64.84033203 15.01049805 64.84033203 14.2109375 68.08984375 C13.2209375 68.74984375 12.2309375 69.40984375 11.2109375 70.08984375 C10.50130859 68.61837891 10.50130859 68.61837891 9.77734375 67.1171875 C-2.26007739 42.43507967 -16.03163871 22.54496537 -40.7890625 9.08984375 C-40.33917969 9.41855469 -39.88929688 9.74726562 -39.42578125 10.0859375 C-33.38128267 14.55571701 -27.57455786 19.2914878 -21.7890625 24.08984375 C-21.04398437 24.69699219 -20.29890625 25.30414063 -19.53125 25.9296875 C-17.91155612 27.27068911 -16.34343151 28.67364088 -14.7890625 30.08984375 C-14.7890625 30.74984375 -14.7890625 31.40984375 -14.7890625 32.08984375 C-14.1290625 32.08984375 -13.4690625 32.08984375 -12.7890625 32.08984375 C-11.42902427 33.74426255 -10.15005045 35.4658042 -8.9140625 37.21484375 C-8.23601562 38.16617188 -7.55796875 39.1175 -6.859375 40.09765625 C-6.17617187 41.08507812 -5.49296875 42.0725 -4.7890625 43.08984375 C-4.12003906 44.05664062 -3.45101562 45.0234375 -2.76171875 46.01953125 C-0.65848886 49.29307322 1.14330223 52.61764557 2.8984375 56.08984375 C3.20587891 56.68023437 3.51332031 57.270625 3.83007812 57.87890625 C5.70585091 61.6058246 6.7374185 64.94813091 7.2109375 69.08984375 C4.17144448 69.76668673 1.12904585 70.42946247 -1.9140625 71.08984375 C-2.77 71.280625 -3.6259375 71.47140625 -4.5078125 71.66796875 C-13.55030086 73.61558163 -13.55030086 73.61558163 -17.7890625 73.08984375 C-18.97443233 71.4641937 -20.14656236 69.82668607 -21.23828125 68.13671875 C-26.88834402 60.67920517 -36.28731489 56.71969112 -44.4140625 52.58984375 C-64.84846025 42.09169858 -72.25848067 26.99571059 -79.7890625 6.08984375 C-84.02108947 -7.45914974 -84.02108947 -7.45914974 -92.7890625 -17.91015625 C-97.11428958 -17.63407793 -99.47897482 -16.62915685 -102.7890625 -13.91015625 C-103.4490625 -13.91015625 -104.1090625 -13.91015625 -104.7890625 -13.91015625 C-104.61322903 -18.39390977 -104.2749394 -20.38957386 -101.1640625 -23.72265625 C-77.93712075 -40.49460468 -19.97286999 -13.67889835 0 0 Z " fill="#4D7046" transform="translate(196.7890625,107.91015625)"/>
<path d="M0 0 C-1.09206493 3.77258795 -2.54393794 7.0810158 -4.39453125 10.5234375 C-7.12964268 15.95806881 -8.65935783 21.33511942 -10 27.25 C-10.24854736 28.30904541 -10.49709473 29.36809082 -10.75317383 30.45922852 C-13.02809112 40.47132867 -14.71883596 50.57551158 -16.26367188 60.72167969 C-19.33475338 80.54460122 -19.33475338 80.54460122 -25.98828125 85.47265625 C-26.75527344 85.99730469 -27.52226562 86.52195312 -28.3125 87.0625 C-31.3783893 89.17057863 -34.42206113 91.29785169 -37.41796875 93.50390625 C-56.36774451 107.42364271 -56.36774451 107.42364271 -69 107 C-71.51549465 106.55454782 -73.5980635 105.90739823 -76 105 C-75.42900607 99.9004335 -74.2826419 95.36203686 -72.4375 90.5625 C-72.17646484 89.87655762 -71.91542969 89.19061523 -71.64648438 88.48388672 C-64.1957359 69.41848079 -53.7586682 53.11666662 -40 38 C-42.91729539 39.30368109 -44.8409928 40.62844499 -46.953125 43.01953125 C-47.48566895 43.62216797 -48.01821289 44.22480469 -48.56689453 44.84570312 C-64.97613882 64.02076434 -74.5488411 86.79185335 -84 110 C-87 110 -87 110 -88.4296875 108.7421875 C-98.59960972 95.60374744 -100.45071908 79.0652569 -99 63 C-97.46679728 54.60982353 -93.99356591 46.8888137 -89 40 C-88.34 38.948125 -87.68 37.89625 -87 36.8125 C-71.87574505 15.54401648 -42.75973001 6.01952516 -18.28515625 1.69140625 C-12.13831165 0.67817513 -6.24850698 -0.12752055 0 0 Z " fill="#4D7046" transform="translate(320,75)"/>
<path d="M0 0 C1 3 1 3 0.22265625 4.82421875 C-0.8515625 6.54947917 -1.92578125 8.27473958 -3 10 C-3.66 10 -4.32 10 -5 10 C-5.23589844 10.67804688 -5.47179687 11.35609375 -5.71484375 12.0546875 C-7.30171364 15.69146529 -9.36752785 18.830808 -11.5625 22.125 C-14.73492989 26.82313966 -14.73492989 26.82313966 -17 32 C-17.66 32 -18.32 32 -19 32 C-19.2475 32.825 -19.495 33.65 -19.75 34.5 C-21.16728759 38.46840526 -23.1154871 42.23097419 -25 46 C-13.12 46.33 -1.24 46.66 11 47 C9 49 9 49 5.37646484 49.22705078 C3.82125311 49.22673357 2.26601949 49.21540299 0.7109375 49.1953125 C-0.51669815 49.19106766 -0.51669815 49.19106766 -1.76913452 49.18673706 C-4.38790393 49.17552532 -7.00633364 49.15041929 -9.625 49.125 C-11.39843257 49.11497147 -13.17187049 49.1058454 -14.9453125 49.09765625 C-19.29700626 49.07558278 -23.6484455 49.04104644 -28 49 C-28 48.34 -28 47.68 -28 47 C-29.485 47.495 -29.485 47.495 -31 48 C-32 47 -32 47 -32.0625 43.4375 C-32.041875 42.303125 -32.02125 41.16875 -32 40 C-31.01 40 -30.02 40 -29 40 C-28.67128906 39.36835938 -28.34257812 38.73671875 -28.00390625 38.0859375 C-25.00841252 32.45213628 -21.81887753 26.99291509 -18.375 21.625 C-18.00318604 21.04282715 -17.63137207 20.4606543 -17.24829102 19.86083984 C-15.00935352 16.40676313 -12.57079791 13.20943823 -10 10 C-9.27968395 8.78977203 -8.5863709 7.5624894 -7.9375 6.3125 C-6 3 -6 3 -3 1 C-3 2.32 -3 3.64 -3 5 C-2.01 3.35 -1.02 1.7 0 0 Z " fill="#4F6B48" transform="translate(263,214)"/>
<path d="M0 0 C0.99265869 -0.00563965 1.98531738 -0.0112793 3.00805664 -0.01708984 C4.63988892 -0.01101715 4.63988892 -0.01101715 6.3046875 -0.00482178 C7.45122803 -0.00832642 8.59776855 -0.01183105 9.77905273 -0.01544189 C13.57932542 -0.02426409 17.37941283 -0.01840822 21.1796875 -0.01165771 C23.81380245 -0.01300422 26.44791715 -0.01494463 29.08203125 -0.01745605 C34.60679136 -0.02109541 40.13149801 -0.01629743 45.65625 -0.0067749 C52.04501123 0.00410962 58.43364482 0.00058402 64.82240295 -0.01042771 C70.96641739 -0.02059404 77.11037519 -0.01952209 83.25439453 -0.01366425 C85.86995461 -0.01232722 88.48551793 -0.01397729 91.10107422 -0.01862335 C94.75236726 -0.02368537 98.40341295 -0.01598265 102.0546875 -0.00482178 C103.14257568 -0.00887024 104.23046387 -0.0129187 105.35131836 -0.01708984 C106.34397705 -0.0114502 107.33663574 -0.00581055 108.359375 0 C109.65464111 0.00113108 109.65464111 0.00113108 110.97607422 0.002285 C113.1796875 0.25396729 113.1796875 0.25396729 116.1796875 2.25396729 C116.40106143 4.88093792 116.46130775 7.26290693 116.3671875 9.87896729 C116.34688477 10.93857666 116.34688477 10.93857666 116.32617188 12.01959229 C116.2907979 13.76470856 116.23698971 15.50943336 116.1796875 17.25396729 C115.5196875 17.25396729 114.8596875 17.25396729 114.1796875 17.25396729 C114.1796875 12.63396729 114.1796875 8.01396729 114.1796875 3.25396729 C111.75464722 2.04144714 110.25763648 2.14267397 107.54882812 2.16494751 C106.08497681 2.173339 106.08497681 2.173339 104.59155273 2.18190002 C103.51719971 2.19327499 102.44284668 2.20464996 101.3359375 2.21636963 C99.64319702 2.22837151 99.64319702 2.22837151 97.91625977 2.24061584 C94.17067538 2.26858954 90.42520396 2.30403089 86.6796875 2.33990479 C84.08659107 2.36166185 81.49349204 2.38311189 78.90039062 2.40426636 C73.45959999 2.44982348 68.01885854 2.49895625 62.578125 2.55084229 C56.28317578 2.61081222 49.98819666 2.6635896 43.69315338 2.7126106 C37.64361836 2.75992341 31.59414657 2.81275792 25.54467773 2.86796951 C22.96737913 2.89093205 20.3900671 2.91243351 17.81274414 2.93247604 C14.21624556 2.9611575 10.6198623 2.99610747 7.0234375 3.03277588 C5.94908447 3.04010239 4.87473145 3.04742889 3.76782227 3.05497742 C2.30397095 3.07182838 2.30397095 3.07182838 0.81054688 3.08901978 C-0.04043579 3.09677114 -0.89141846 3.10452251 -1.76818848 3.11250877 C-3.88546968 3.12627691 -3.88546968 3.12627691 -5.8203125 4.25396729 C-5.79710937 4.88045166 -5.77390625 5.50693604 -5.75 6.15240479 C-5.73195312 6.96967041 -5.71390625 7.78693604 -5.6953125 8.62896729 C-5.67210937 9.44107666 -5.64890625 10.25318604 -5.625 11.08990479 C-5.8203125 13.25396729 -5.8203125 13.25396729 -7.8203125 15.25396729 C-7.90109891 13.12958389 -7.95940391 11.00433498 -8.0078125 8.87896729 C-8.04261719 7.69560791 -8.07742187 6.51224854 -8.11328125 5.29302979 C-8.01660156 4.29013916 -7.91992188 3.28724854 -7.8203125 2.25396729 C-4.58660716 0.09816373 -3.72689564 0.00325447 0 0 Z " fill="#BEB2A1" transform="translate(161.8203125,296.74603271484375)"/>
<path d="M0 0 C0.33 0 0.66 0 1 0 C1.33 3.3 1.66 6.6 2 10 C40.28 10.33 78.56 10.66 118 11 C115.52307892 13.47692108 114.81783566 13.25091864 111.40710449 13.25396729 C110.43961777 13.25960693 109.47213104 13.26524658 108.47532654 13.27105713 C106.8778231 13.26498444 106.8778231 13.26498444 105.24804688 13.25878906 C104.12930679 13.2622937 103.01056671 13.26579834 101.85792542 13.26940918 C98.14480458 13.27824113 94.43187291 13.2723721 90.71875 13.265625 C88.14807091 13.26697123 85.57739208 13.2689114 83.00671387 13.27142334 C77.61301014 13.27437659 72.21937805 13.27026009 66.82568359 13.26074219 C60.58518002 13.24985732 54.34480711 13.25338279 48.1043067 13.264395 C42.10712212 13.27455526 36.11000161 13.27349169 30.11280823 13.26763153 C27.55782554 13.26629352 25.00283954 13.26794799 22.44786072 13.27259064 C18.88246719 13.27764687 15.31732765 13.26995819 11.75195312 13.25878906 C10.68695084 13.26283752 9.62194855 13.26688599 8.52467346 13.27105713 C7.07344337 13.26259766 7.07344337 13.26259766 5.59289551 13.25396729 C4.32748302 13.25283621 4.32748302 13.25283621 3.03650665 13.25168228 C1 13 1 13 -1 11 C-1.23046875 8.90625 -1.23046875 8.90625 -1.1875 6.5 C-1.18105469 5.7059375 -1.17460937 4.911875 -1.16796875 4.09375 C-1 2 -1 2 0 0 Z " fill="#63785F" transform="translate(156,281)"/>
<path d="M0 0 C0 0.66 0 1.32 0 2 C-4.62 1.34 -9.24 0.68 -14 0 C-13.67 0.99 -13.34 1.98 -13 3 C-14.28965176 4.37562854 -15.62689293 5.70766393 -17 7 C-17.66 7 -18.32 7 -19 7 C-18.67 7.99 -18.34 8.98 -18 10 C-18.70125 9.649375 -19.4025 9.29875 -20.125 8.9375 C-23.59646321 7.80550113 -25.50038585 8.03202162 -29 9 C-31.2072358 10.48800372 -31.2072358 10.48800372 -33 12 C-33.66 12 -34.32 12 -35 12 C-34.82416653 7.51624648 -34.4858769 5.52058239 -31.375 2.1875 C-21.98342406 -4.59406553 -10.55331688 -1.99995176 0 0 Z " fill="#587652" transform="translate(127,82)"/>
<path d="M0 0 C0.66 0 1.32 0 2 0 C3.14152811 4.0877362 3.14699958 8.03341398 3.125 12.25 C3.12886719 12.97574219 3.13273438 13.70148438 3.13671875 14.44921875 C3.13012338 18.14921935 2.93100758 21.63328448 2.3203125 25.28515625 C1.6979358 28.87013184 1.6979358 28.87013184 3.109375 31.35546875 C3.92148438 32.26232422 3.92148438 32.26232422 4.75 33.1875 C5.30558594 33.84363281 5.86117187 34.49976563 6.43359375 35.17578125 C6.95050781 35.77777344 7.46742188 36.37976563 8 37 C9.45354067 39.30561623 10.78296322 41.56592645 12 44 C10.68 43.67 9.36 43.34 8 43 C7.67 41.68 7.34 40.36 7 39 C6.34 39 5.68 39 5 39 C4.67 40.32 4.34 41.64 4 43 C-1.75 41.25 -1.75 41.25 -4 39 C-3.625 36.375 -3.625 36.375 -3 34 C-1.68 34.33 -0.36 34.66 1 35 C-0.80143131 30.31627859 -2.28188551 27.4616928 -6 24 C-6 23.34 -6 22.68 -6 22 C-5.38125 22.165 -4.7625 22.33 -4.125 22.5 C-2.03936614 23.07634644 -2.03936614 23.07634644 0 23 C0 21.02 0 19.04 0 17 C0.66 17 1.32 17 2 17 C1.34 11.39 0.68 5.78 0 0 Z " fill="#475E40" transform="translate(166,183)"/>
<path d="M0 0 C3.21551288 0.34451924 4.02059877 1.02288752 6.25 3.5 C8 6 8 6 8 7 C10.64 7.66 13.28 8.32 16 9 C16 9.66 16 10.32 16 11 C14.97519531 10.95359375 13.95039062 10.9071875 12.89453125 10.859375 C11.53388344 10.82183989 10.17320395 10.78544159 8.8125 10.75 C8.13896484 10.71648437 7.46542969 10.68296875 6.77148438 10.6484375 C1.76028998 10.5506581 -0.34803911 11.70480261 -4 15 C-4.99 15 -5.98 15 -7 15 C-6.85904936 13.3745692 -6.71207913 11.74965949 -6.5625 10.125 C-6.48128906 9.22007812 -6.40007812 8.31515625 -6.31640625 7.3828125 C-6 5 -6 5 -5 3 C-2.4375 2.375 -2.4375 2.375 0 2 C0 1.34 0 0.68 0 0 Z " fill="#496942" transform="translate(72,171)"/>
<path d="M0 0 C1.65 0 3.3 0 5 0 C5 1.32 5 2.64 5 4 C5.66 3.67 6.32 3.34 7 3 C7 3.99 7 4.98 7 6 C18.88 6.33 30.76 6.66 43 7 C41 9 41 9 37.37646484 9.22705078 C35.82125311 9.22673357 34.26601949 9.21540299 32.7109375 9.1953125 C31.48330185 9.19106766 31.48330185 9.19106766 30.23086548 9.18673706 C27.61209607 9.17552532 24.99366636 9.15041929 22.375 9.125 C20.60156743 9.11497147 18.82812951 9.1058454 17.0546875 9.09765625 C12.70299374 9.07558278 8.3515545 9.04104644 4 9 C4 8.34 4 7.68 4 7 C3.01 7.33 2.02 7.66 1 8 C0 7 0 7 -0.0625 3.4375 C-0.041875 2.303125 -0.02125 1.16875 0 0 Z " fill="#445C3F" transform="translate(231,254)"/>
<path d="M0 0 C0.99 0.33 1.98 0.66 3 1 C3 3.31 3 5.62 3 8 C3.99 7.67 4.98 7.34 6 7 C6.33 8.65 6.66 10.3 7 12 C6.34 12 5.68 12 5 12 C4.67 11.67 4.34 11.34 4 11 C0.42988974 14.732388 -0.10913442 19.0949989 -1 24 C-1.66 24 -2.32 24 -3 24 C-2.68957083 21.12476286 -2.37672481 18.24982273 -2.0625 15.375 C-1.97548828 14.56675781 -1.88847656 13.75851563 -1.79882812 12.92578125 C-1.32290463 8.58958942 -0.77162811 4.29609164 0 0 Z " fill="#3F5C38" transform="translate(227,235)"/>
<path d="M0 0 C0.66 0.33 1.32 0.66 2 1 C1.01 3.64 0.02 6.28 -1 9 C0.65 9.33 2.3 9.66 4 10 C4 10.66 4 11.32 4 12 C3.34 12 2.68 12 2 12 C2 12.66 2 13.32 2 14 C6.95 13.67 11.9 13.34 17 13 C12.2674137 16.15505753 6.32169091 16.56406072 0.72265625 15.61328125 C-0.87575828 15.15238872 -2.4438088 14.58789445 -4 14 C-3.46148032 8.72250715 -2.22656164 4.74354436 0 0 Z " fill="#425C3A" transform="translate(248,166)"/>
<path d="M0 0 C0.33 0.66 0.66 1.32 1 2 C0.46890625 2.6290625 -0.0621875 3.258125 -0.609375 3.90625 C-4.39716967 8.49584062 -7.7269988 12.83417579 -10.19921875 18.2578125 C-11 20 -11 20 -12.625 22.6875 C-14.09475695 24.98437278 -14.09475695 24.98437278 -14.9375 27.6875 C-16.22303042 30.48541916 -17.26623814 30.79051748 -20 32 C-14.62990928 20.83084682 -8.87678 8.87678 0 0 Z " fill="#445B3D" transform="translate(273,121)"/>
<path d="M0 0 C18.48361442 11.68061744 18.48361442 11.68061744 22 21 C21.62109375 23.23828125 21.62109375 23.23828125 21 25 C16.2038835 19.69902913 16.2038835 19.69902913 15.125 16 C13.10812401 10.62166402 8.67153563 7.80481345 3.625 5.375 C1 4 1 4 0.3359375 1.9140625 C0.22507813 1.28242187 0.11421875 0.65078125 0 0 Z " fill="#4F664C" transform="translate(193,106)"/>
<path d="M0 0 C3.41656785 5.31039571 1.19421253 11.17902963 0 17 C-0.90671326 20.69693716 -1.90425284 24.35481445 -3 28 C-3.66 28 -4.32 28 -5 28 C-1.92482916 10.14350797 -1.92482916 10.14350797 0 2 C-1.65 2.33 -3.3 2.66 -5 3 C-4.67 2.34 -4.34 1.68 -4 1 C-1.9375 0.375 -1.9375 0.375 0 0 Z " fill="#475F43" transform="translate(214,231)"/>
<path d="M0 0 C0.33 0.66 0.66 1.32 1 2 C-0.15689569 4.58582629 -1.37034639 7.05990814 -2.6875 9.5625 C-3.43249023 11.0109479 -4.17599034 12.46016322 -4.91796875 13.91015625 C-5.27810059 14.61156738 -5.63823242 15.31297852 -6.00927734 16.03564453 C-7.82126801 19.62836925 -9.41546085 23.30274197 -11 27 C-12.171875 25.30078125 -12.171875 25.30078125 -13 23 C-11.953125 20.66796875 -11.953125 20.66796875 -10.25 18.1875 C-8.21732067 15.06277172 -6.96544533 12.87804235 -5.9375 9.25 C-4.74439921 5.11391727 -2.90413628 3.1334102 0 0 Z " fill="#425D3E" transform="translate(255,139)"/>
<path d="M0 0 C0 0.66 0 1.32 0 2 C-1.62808594 2.18175781 -1.62808594 2.18175781 -3.2890625 2.3671875 C-4.73441404 2.53612469 -6.17972442 2.70541425 -7.625 2.875 C-8.33785156 2.95363281 -9.05070312 3.03226563 -9.78515625 3.11328125 C-14.09697719 3.62753512 -17.88163934 4.56280083 -22 6 C-22.99 6 -23.98 6 -25 6 C-25 5.01 -25 4.02 -25 3 C-16.62335208 0.71545966 -8.67431768 -0.15771487 0 0 Z " fill="#455D3D" transform="translate(113,158)"/>
<path d="M0 0 C0.66 0.33 1.32 0.66 2 1 C0.69115646 5.22857145 -0.70329644 9.20160565 -3 13 C-5.1875 13.875 -5.1875 13.875 -7 14 C-7.25 7.375 -7.25 7.375 -5 4 C-4.01 4 -3.02 4 -2 4 C-1.34 2.68 -0.68 1.36 0 0 Z " fill="#526A4C" transform="translate(242,245)"/>
<path d="M0 0 C0 0.66 0 1.32 0 2 C-2.64738916 3.4606285 -3.89448334 4 -7 4 C-7.33 4.66 -7.66 5.32 -8 6 C-9.66446623 6.96539041 -11.33262507 7.92528399 -13.0234375 8.84375 C-15.06115172 10.03577255 -16.87708152 11.37792414 -18.75 12.8125 C-19.8225 13.534375 -20.895 14.25625 -22 15 C-22.99 14.67 -23.98 14.34 -25 14 C-7.56410256 0 -7.56410256 0 0 0 Z " fill="#4A5E44" transform="translate(269,87)"/>
<path d="M0 0 C3.33571429 1.11190476 3.58417079 1.46320673 5.1875 4.375 C5.70376953 5.28378906 5.70376953 5.28378906 6.23046875 6.2109375 C7 8 7 8 7 11 C4.36 10.67 1.72 10.34 -1 10 C-0.835 9.278125 -0.67 8.55625 -0.5 7.8125 C-0.02412881 5.13572455 0.077443 2.71050513 0 0 Z " fill="#486042" transform="translate(381,177)"/>
<path d="M0 0 C2.35953094 2.35953094 2.49141413 3.77895617 3 7 C3.99 7.33 4.98 7.66 6 8 C1.375 12 1.375 12 -2 12 C-1.85904936 10.3745692 -1.71207913 8.74965949 -1.5625 7.125 C-1.48128906 6.22007812 -1.40007812 5.31515625 -1.31640625 4.3828125 C-1 2 -1 2 0 0 Z " fill="#465C40" transform="translate(67,174)"/>
<path d="M0 0 C0.66 0.66 1.32 1.32 2 2 C1.68546875 2.4846875 1.3709375 2.969375 1.046875 3.46875 C-2.52026258 9.05583296 -5.89613364 14.68840093 -8 21 C-8.66 21 -9.32 21 -10 21 C-8.28805526 14.20789405 -6.01502377 8.73764122 -2 3 C-1.34 2.01 -0.68 1.02 0 0 Z " fill="#455C3F" transform="translate(233,112)"/>
<path d="M0 0 C-0.5 2.25 -0.5 2.25 -2 5 C-3.95036442 6.18998005 -5.9438945 7.09307818 -8.03125 8.01953125 C-10.5119228 9.25494568 -12.12815112 10.98416274 -14 13 C-14.66 13 -15.32 13 -16 13 C-16 12.34 -16 11.68 -16 11 C-15.34 11 -14.68 11 -14 11 C-13.71125 10.38125 -13.4225 9.7625 -13.125 9.125 C-12 7 -12 7 -10 5 C-7.875 4.375 -7.875 4.375 -6 4 C-6 3.34 -6 2.68 -6 2 C-3 0 -3 0 0 0 Z " fill="#354C2E" transform="translate(294,99)"/>
<path d="M0 0 C1 3 1 3 -0.5625 6.625 C-2.35248284 9.60830474 -2.70890524 9.91603036 -6.25 10.9375 C-7.1575 10.958125 -8.065 10.97875 -9 11 C-8.58578031 6.16743695 -6.53586014 4.17320782 -3 1 C-3 2.32 -3 3.64 -3 5 C-2.01 3.35 -1.02 1.7 0 0 Z " fill="#435C3C" transform="translate(263,214)"/>
<path d="M0 0 C7.33018323 1.34386693 14.42778735 3.40448756 21 7 C21.33 7.99 21.66 8.98 22 10 C15.25 8.25 15.25 8.25 13 6 C10.49363378 5.17887487 7.96374344 4.53704728 5.41015625 3.87890625 C2.8897853 2.95980825 1.71112994 2.02737838 0 0 Z " fill="#495E43" transform="translate(160,92)"/>
<path d="M0 0 C-1.34290391 4.02871174 -3.51307554 4.67538369 -7 7 C-8.34736973 8.65533995 -9.68334336 10.32012773 -11 12 C-11.99 12.33 -12.98 12.66 -14 13 C-15.37195574 14.29355827 -16.71182656 15.62298702 -18 17 C-16.58105123 12.32334637 -14.19836419 10.00414174 -10.5625 6.8125 C-9.59441406 5.95269531 -8.62632812 5.09289062 -7.62890625 4.20703125 C-2.61769912 0 -2.61769912 0 0 0 Z " fill="#465D42" transform="translate(286,201)"/>
<path d="M0 0 C0.66 0 1.32 0 2 0 C2.2475 0.61875 2.495 1.2375 2.75 1.875 C4.22770762 4.38710296 5.43955177 4.76107344 8 6 C8.33 6.99 8.66 7.98 9 9 C6 11 6 11 4 12 C3.32332002 10.75539217 2.65905281 9.50403104 2 8.25 C1.62875 7.55390625 1.2575 6.8578125 0.875 6.140625 C0 4 0 4 0 0 Z " fill="#546D4D" transform="translate(171,222)"/>
<path d="M0 0 C0.99 0.33 1.98 0.66 3 1 C0.55962877 4.66055685 -2.08831822 5.63191477 -6 7.25 C-6.96292969 7.67152344 -6.96292969 7.67152344 -7.9453125 8.1015625 C-9.6031681 8.80216256 -11.30019514 9.40840125 -13 10 C-13.66 9.67 -14.32 9.34 -15 9 C-8.58278146 5.22516556 -8.58278146 5.22516556 -5.25 3.9375 C-2.8962096 2.956754 -1.65257644 1.91350956 0 0 Z " fill="#435F3D" transform="translate(148,240)"/>
<path d="M0 0 C0 0.66 0 1.32 0 2 C-0.66 2 -1.32 2 -2 2 C-2.226875 2.639375 -2.45375 3.27875 -2.6875 3.9375 C-4 6 -4 6 -6.625 6.75 C-7.800625 6.87375 -7.800625 6.87375 -9 7 C-9 7.66 -9 8.32 -9 9 C-10.8125 10.0625 -10.8125 10.0625 -13 11 C-13.99 10.67 -14.98 10.34 -16 10 C-15.175 9.46375 -14.35 8.9275 -13.5 8.375 C-10.11696942 6.13575595 -6.92763242 3.67202229 -3.734375 1.171875 C-2 0 -2 0 0 0 Z " fill="#44583F" transform="translate(286,172)"/>
<path d="M0 0 C0.66 0.33 1.32 0.66 2 1 C0.8125 4.4375 0.8125 4.4375 -1 8 C-3.625 8.8125 -3.625 8.8125 -6 9 C-6.33 9.66 -6.66 10.32 -7 11 C-7.66 11 -8.32 11 -9 11 C-8.375 8.1875 -8.375 8.1875 -7 5 C-3.9375 3.25 -3.9375 3.25 -1 2 C-0.67 1.34 -0.34 0.68 0 0 Z " fill="#486342" transform="translate(247,238)"/>
<path d="M0 0 C0.66 0.33 1.32 0.66 2 1 C1.74580341 3.96064259 1.47249807 6.91730345 1.1875 9.875 C1.11724609 10.71675781 1.04699219 11.55851563 0.97460938 12.42578125 C0.89404297 13.23144531 0.81347656 14.03710938 0.73046875 14.8671875 C0.66239014 15.61081543 0.59431152 16.35444336 0.52416992 17.12060547 C0 19 0 19 -3 21 C-2.8453125 20.32324219 -2.690625 19.64648438 -2.53125 18.94921875 C-1.70412912 14.35748151 -1.5540655 9.73450985 -1.28125 5.08203125 C-1 2 -1 2 0 0 Z " fill="#445D3E" transform="translate(263,194)"/>
<path d="M0 0 C1.25425781 0.00902344 2.50851563 0.01804688 3.80078125 0.02734375 C4.75339844 0.03894531 5.70601562 0.05054688 6.6875 0.0625 C3.95203975 2.79796025 2.06478884 2.49057735 -1.75 2.75 C-3.48056641 2.87955078 -3.48056641 2.87955078 -5.24609375 3.01171875 C-8.3125 3.0625 -8.3125 3.0625 -11.3125 2.0625 C-11.6425 2.7225 -11.9725 3.3825 -12.3125 4.0625 C-12.3125 3.0725 -12.3125 2.0825 -12.3125 1.0625 C-8.15623632 0.05323521 -4.26884906 -0.03989579 0 0 Z " fill="#455A41" transform="translate(211.3125,180.9375)"/>
<path d="M0 0 C0.33 0.66 0.66 1.32 1 2 C0.01 2.33 -0.98 2.66 -2 3 C-2 3.66 -2 4.32 -2 5 C-4.8125 5.6875 -4.8125 5.6875 -8 6 C-9.625 4.6875 -9.625 4.6875 -11 3 C-12.32 2.34 -13.64 1.68 -15 1 C-10.05 0.67 -5.1 0.34 0 0 Z " fill="#425F3C" transform="translate(343,176)"/>
<path d="M0 0 C1.98 0 3.96 0 6 0 C4.90931332 3.77545388 4.0916909 6.47043472 1 9 C-1.125 3.375 -1.125 3.375 0 0 Z " fill="#536A4C" transform="translate(314,75)"/>
<path d="M0 0 C2.31 0.33 4.62 0.66 7 1 C7.66 2.65 8.32 4.3 9 6 C8.01 6.33 7.02 6.66 6 7 C3.3125 5.5625 3.3125 5.5625 1 4 C1.33 3.01 1.66 2.02 2 1 C1.34 0.67 0.68 0.34 0 0 Z " fill="#466342" transform="translate(171,246)"/>
<path d="M0 0 C1.32 0.66 2.64 1.32 4 2 C3.67 2.66 3.34 3.32 3 4 C3.99 4 4.98 4 6 4 C6.33 5.65 6.66 7.3 7 9 C1.25 7.25 1.25 7.25 -1 5 C-0.625 2.375 -0.625 2.375 0 0 Z " fill="#4C6541" transform="translate(163,217)"/>
<path d="M0 0 C-0.75925781 0.47050781 -1.51851563 0.94101563 -2.30078125 1.42578125 C-3.29464844 2.04839844 -4.28851563 2.67101562 -5.3125 3.3125 C-6.29863281 3.92738281 -7.28476562 4.54226562 -8.30078125 5.17578125 C-10.95507389 6.83336627 -10.95507389 6.83336627 -12.66796875 8.73046875 C-14 10 -14 10 -17 10 C-17 9.34 -17 8.68 -17 8 C-15.8553125 7.319375 -15.8553125 7.319375 -14.6875 6.625 C-11.94073901 5.21262115 -11.94073901 5.21262115 -10.5625 2.9375 C-7.68740927 -0.62761251 -4.23595451 -1.41198484 0 0 Z " fill="#4C6147" transform="translate(295,192)"/>
<path d="M0 0 C0.66 0.33 1.32 0.66 2 1 C0.86667351 4.39997948 -0.62437747 5.48048355 -3.3671875 7.66015625 C-5.75096965 9.61622629 -7.85251622 11.78935494 -10 14 C-10.66 13.67 -11.32 13.34 -12 13 C-8.04 8.71 -4.08 4.42 0 0 Z " fill="#46643D" transform="translate(286,106)"/>
<path d="M0 0 C0.680625 0.185625 1.36125 0.37125 2.0625 0.5625 C5.0928183 1.15680526 5.0928183 1.15680526 8.5 0.5 C11.76835694 0.03309187 13.85544494 0.14239408 17 1 C17 1.66 17 2.32 17 3 C14.54159395 3.02691685 12.08348118 3.04679802 9.625 3.0625 C8.92632812 3.07087891 8.22765625 3.07925781 7.5078125 3.08789062 C2.2265625 3.11328125 2.2265625 3.11328125 0 2 C0 1.34 0 0.68 0 0 Z " fill="#566E50" transform="translate(130,217)"/>
<path d="M0 0 C3.79379058 1.49041773 5.68343758 3.69062512 8 7 C8 7.66 8 8.32 8 9 C8.63474075 10.34882408 9.29848848 11.6846659 10 13 C9.01 13.495 9.01 13.495 8 14 C6.66101601 12.04532248 5.32870953 10.0866421 4 8.125 C3.2575 7.03445312 2.515 5.94390625 1.75 4.8203125 C0 2 0 2 0 0 Z " fill="#445840" transform="translate(188,141)"/>
<path d="M0 0 C4.71403788 0.47939368 8.66579301 0.96834048 13 3 C12.01 3.99 11.02 4.98 10 6 C10 5.34 10 4.68 10 4 C8.68 4 7.36 4 6 4 C5.67 4.66 5.34 5.32 5 6 C4.01 5.67 3.02 5.34 2 5 C2.33 4.34 2.66 3.68 3 3 C3.66 3.33 4.32 3.66 5 4 C5 3.34 5 2.68 5 2 C3.35 1.67 1.7 1.34 0 1 C0 0.67 0 0.34 0 0 Z " fill="#597253" transform="translate(135,233)"/>
<path d="M0 0 C2.82059747 1.41029874 2.98101714 3.07891581 4 6 C5.00631075 9.11041503 5.08177854 9.75466439 4 13 C3.34 13 2.68 13 2 13 C2.0825 12.236875 2.165 11.47375 2.25 10.6875 C2.29166667 7.85416667 2.29166667 7.85416667 0 6.1875 C-0.66 5.795625 -1.32 5.40375 -2 5 C-1.34 3.35 -0.68 1.7 0 0 Z " fill="#46633F" transform="translate(228,209)"/>
<path d="M0 0 C1.45839897 3.95705456 0.67906093 7.69831388 0.0625 11.75 C-0.03740234 12.44738281 -0.13730469 13.14476562 -0.24023438 13.86328125 C-0.48665873 15.57651726 -0.74240955 17.28840725 -1 19 C-3.64978792 14.49536053 -2.93597257 10.97181759 -2 6 C-1.3974699 3.97975201 -0.75679435 1.96766531 0 0 Z " fill="#43593E" transform="translate(305,117)"/>
<path d="M0 0 C0.99 0.33 1.98 0.66 3 1 C3.33 1.99 3.66 2.98 4 4 C4.99 4.66 5.98 5.32 7 6 C7 7.32 7 8.64 7 10 C6.01 10.33 5.02 10.66 4 11 C1.41423292 8.41423292 1.50867467 6.56072267 1 3 C0.67 2.01 0.34 1.02 0 0 Z " fill="#45643D" transform="translate(180,241)"/>
<path d="M0 0 C0.66 0 1.32 0 2 0 C2.391875 0.7425 2.78375 1.485 3.1875 2.25 C5.62412326 5.94694564 8.10691997 6.91442141 12 9 C13.9375 10.75 13.9375 10.75 15 12 C9.27150036 11.15757358 5.23066909 9.58691541 1.625 4.9375 C0 2 0 2 0 0 Z " fill="#445C3F" transform="translate(186,222)"/>
<path d="M0 0 C0.66 0.66 1.32 1.32 2 2 C1.9765625 5.2578125 1.9765625 5.2578125 1.625 9.125 C1.51414063 10.40632812 1.40328125 11.68765625 1.2890625 13.0078125 C1.19367188 13.99523437 1.09828125 14.98265625 1 16 C0.34 16 -0.32 16 -1 16 C-1.02692484 13.70839681 -1.04636124 11.41670454 -1.0625 9.125 C-1.07410156 7.84882813 -1.08570313 6.57265625 -1.09765625 5.2578125 C-1 2 -1 2 0 0 Z " fill="#566F50" transform="translate(222,140)"/>
<path d="M0 0 C10.59628378 6.92567568 10.59628378 6.92567568 14 10 C14 10.66 14 11.32 14 12 C11.88143321 11.05029764 10.24064143 10.25157967 8.625 8.5625 C6.92809024 6.75966063 6.92809024 6.75966063 3.875 5.5625 C1 4 1 4 0.3203125 1.90234375 C0.21460938 1.27457031 0.10890625 0.64679688 0 0 Z " fill="#445940" transform="translate(193,106)"/>
<path d="M0 0 C0.33 1.65 0.66 3.3 1 5 C0.34 4.67 -0.32 4.34 -1 4 C-1 3.34 -1 2.68 -1 2 C-4.63 2.33 -8.26 2.66 -12 3 C-12 2.34 -12 1.68 -12 1 C-3.96428571 -1.27678571 -3.96428571 -1.27678571 0 0 Z " fill="#52664B" transform="translate(254,190)"/>
<path d="M0 0 C-0.375 1.9375 -0.375 1.9375 -1 4 C-4.01324195 5.50662097 -6.68286377 5.17770373 -10 5 C-10.66 4.34 -11.32 3.68 -12 3 C-10.75336669 2.49166409 -9.50250613 1.99368855 -8.25 1.5 C-7.55390625 1.2215625 -6.8578125 0.943125 -6.140625 0.65625 C-4 0 -4 0 0 0 Z " fill="#486041" transform="translate(318,185)"/>
<path d="M0 0 C0.33 0 0.66 0 1 0 C1.25515919 7.52719602 0.28297723 14.58851545 -1 22 C-1.33 22 -1.66 22 -2 22 C-2 20.02 -2 18.04 -2 16 C-2.66 15.67 -3.32 15.34 -4 15 C-4 14.34 -4 13.68 -4 13 C-3.34 13 -2.68 13 -2 13 C-1.34 8.71 -0.68 4.42 0 0 Z " fill="#4E634A" transform="translate(215,132)"/>
<path d="M0 0 C0.66 0 1.32 0 2 0 C0.36412556 7.97488789 0.36412556 7.97488789 -2.98046875 10.48828125 C-4.96234777 11.45291263 -6.91379039 12.29138248 -9 13 C-9 12.34 -9 11.68 -9 11 C-8.34 11 -7.68 11 -7 11 C-7 10.34 -7 9.68 -7 9 C-5.824375 8.38125 -5.824375 8.38125 -4.625 7.75 C-1.3266667 5.55111113 -0.92128432 3.76889042 0 0 Z " fill="#485C41" transform="translate(299,149)"/>
<path d="M0 0 C0.66 0.66 1.32 1.32 2 2 C1.4225 2.70125 0.845 3.4025 0.25 4.125 C-2.00492952 7.00629883 -4.00502096 9.93628219 -6 13 C-6.6796875 11.26171875 -6.6796875 11.26171875 -7 9 C-5.8203125 6.89453125 -5.8203125 6.89453125 -4.125 4.8125 C-3.57070313 4.11769531 -3.01640625 3.42289063 -2.4453125 2.70703125 C-1.659571 1.77900682 -0.8598311 0.8598311 0 0 Z " fill="#435E3E" transform="translate(264,125)"/>
<path d="M0 0 C0.66 0.33 1.32 0.66 2 1 C0.33333333 6 -1.33333333 11 -3 16 C-4.49181293 12.02183219 -3.97094019 8.04973345 -3 4 C-1.4375 1.5 -1.4375 1.5 0 0 Z " fill="#495E42" transform="translate(313,86)"/>
<path d="M0 0 C0.99 0.33 1.98 0.66 3 1 C2.375 8.625 2.375 8.625 -1 12 C-0.67 8.04 -0.34 4.08 0 0 Z " fill="#466141" transform="translate(227,235)"/>
<path d="M0 0 C0.99 0 1.98 0 3 0 C3 0.66 3 1.32 3 2 C2.01 2.495 2.01 2.495 1 3 C1.02320313 3.62648438 1.04640625 4.25296875 1.0703125 4.8984375 C1.08835938 5.71570313 1.10640625 6.53296875 1.125 7.375 C1.14820313 8.18710937 1.17140625 8.99921875 1.1953125 9.8359375 C1 12 1 12 -1 14 C-1.02685938 11.85423363 -1.04633088 9.70837355 -1.0625 7.5625 C-1.07410156 6.36753906 -1.08570313 5.17257812 -1.09765625 3.94140625 C-1 1 -1 1 0 0 Z " fill="#C2BAA5" transform="translate(155,298)"/>
<path d="M0 0 C0.66 0.33 1.32 0.66 2 1 C-1.32307692 6.78461538 -1.32307692 6.78461538 -4.75 7.875 C-5.4925 7.91625 -6.235 7.9575 -7 8 C-6.8125 6.1875 -6.8125 6.1875 -6 4 C-3.5 2.3125 -3.5 2.3125 -1 1 C-0.67 0.67 -0.34 0.34 0 0 Z " fill="#405D39" transform="translate(111,272)"/>
<path d="M0 0 C2.31 0.33 4.62 0.66 7 1 C7.625 2.875 7.625 2.875 8 5 C7.34 5.66 6.68 6.32 6 7 C4.5 5.625 4.5 5.625 3 4 C3 3.34 3 2.68 3 2 C2.01 2 1.02 2 0 2 C0 1.34 0 0.68 0 0 Z " fill="#465F41" transform="translate(151,238)"/>
<path d="M0 0 C4.1724106 0.51881113 6.25416821 1.71151274 9.3125 4.5625 C10.00988281 5.20316406 10.70726562 5.84382812 11.42578125 6.50390625 C11.94527344 6.99761719 12.46476563 7.49132812 13 8 C12.67 8.99 12.34 9.98 12 11 C11.319375 10.278125 10.63875 9.55625 9.9375 8.8125 C7.83544051 6.6923193 5.63592528 4.95693063 3.1875 3.25 C2.135625 2.5075 1.08375 1.765 0 1 C0 0.67 0 0.34 0 0 Z " fill="#455C40" transform="translate(163,165)"/>
<path d="M0 0 C0.99 0.33 1.98 0.66 3 1 C0.69 3.97 -1.62 6.94 -4 10 C-5 6 -5 6 -4.00390625 4.296875 C-2.66927083 2.86458333 -1.33463542 1.43229167 0 0 Z " fill="#465F41" transform="translate(271,116)"/>
<path d="M0 0 C2.91517292 1.07401108 4.77810176 1.77810176 7 4 C7.99 4.33 8.98 4.66 10 5 C9.67 5.66 9.34 6.32 9 7 C6.36 6.67 3.72 6.34 1 6 C0.67 4.02 0.34 2.04 0 0 Z " fill="#54704E" transform="translate(178,247)"/>
<path d="M0 0 C0 2.95274099 -0.43891831 4.49058403 -1.5 7.1875 C-1.7784375 7.90292969 -2.056875 8.61835938 -2.34375 9.35546875 C-2.5603125 9.89816406 -2.776875 10.44085938 -3 11 C-3.99 11 -4.98 11 -6 11 C-5.39305845 7.84669446 -4.3583335 5.81111133 -2.4375 3.25 C-1.98246094 2.63640625 -1.52742188 2.0228125 -1.05859375 1.390625 C-0.70925781 0.93171875 -0.35992187 0.4728125 0 0 Z " fill="#3F5739" transform="translate(111,309)"/>
<path d="M0 0 C1.32 0.33 2.64 0.66 4 1 C4.33 3.31 4.66 5.62 5 8 C4.01 8.495 4.01 8.495 3 9 C2.01 6.03 1.02 3.06 0 0 Z " fill="#51674B" transform="translate(88,299)"/>
<path d="M0 0 C0.99 0.99 1.98 1.98 3 3 C2.34 3.66 1.68 4.32 1 5 C0.54188325 6.97235333 0.54188325 6.97235333 0.375 9.125 C0.25125 10.40375 0.1275 11.6825 0 13 C-0.66 13 -1.32 13 -2 13 C-1.85966889 11.02043559 -1.7125877 9.04134859 -1.5625 7.0625 C-1.48128906 5.96035156 -1.40007812 4.85820312 -1.31640625 3.72265625 C-1 1 -1 1 0 0 Z " fill="#52634E" transform="translate(157,262)"/>
<path d="M0 0 C0.66 0.33 1.32 0.66 2 1 C0.625 2.5 0.625 2.5 -1 4 C-1.66 4 -2.32 4 -3 4 C-3 5.32 -3 6.64 -3 8 C-3.66 8 -4.32 8 -5 8 C-5.33 8.99 -5.66 9.98 -6 11 C-6.33 10.01 -6.66 9.02 -7 8 C-6.07421875 6.2109375 -6.07421875 6.2109375 -4.6875 4.375 C-4.23761719 3.76398438 -3.78773437 3.15296875 -3.32421875 2.5234375 C-2 1 -2 1 0 0 Z " fill="#40543B" transform="translate(101,238)"/>
<path d="M0 0 C2.31 0.33 4.62 0.66 7 1 C7.33 2.32 7.66 3.64 8 5 C5.03 4.505 5.03 4.505 2 4 C2 3.01 2 2.02 2 1 C1.34 0.67 0.68 0.34 0 0 Z " fill="#556F50" transform="translate(353,161)"/>
<path d="M0 0 C0.33 0 0.66 0 1 0 C1.33 3.96 1.66 7.92 2 12 C1.01 11.67 0.02 11.34 -1 11 C-1.0270043 9.54176788 -1.04639787 8.08339325 -1.0625 6.625 C-1.07410156 5.81289063 -1.08570313 5.00078125 -1.09765625 4.1640625 C-1 2 -1 2 0 0 Z " fill="#5B6D55" transform="translate(156,281)"/>
<path d="M0 0 C0.66 0.66 1.32 1.32 2 2 C0.75443908 2.81928886 -0.49666635 3.63015186 -1.75 4.4375 C-2.44609375 4.88996094 -3.1421875 5.34242188 -3.859375 5.80859375 C-5.92957014 6.9608009 -7.68696324 7.54676982 -10 8 C-9.34 7.67 -8.68 7.34 -8 7 C-7.67 6.01 -7.34 5.02 -7 4 C-4.78298853 2.41034429 -2.42137527 1.27672514 0 0 Z " fill="#435B37" transform="translate(137,242)"/>
<path d="M0 0 C2.97 0.99 5.94 1.98 9 3 C8.67 3.66 8.34 4.32 8 5 C6.02 4.34 4.04 3.68 2 3 C1.67 3.66 1.34 4.32 1 5 C0.34 5 -0.32 5 -1 5 C-0.67 3.35 -0.34 1.7 0 0 Z " fill="#597153" transform="translate(159,240)"/>
<path d="M0 0 C3 1 3 1 3.94921875 2.84765625 C4.19285156 3.57855469 4.43648437 4.30945313 4.6875 5.0625 C4.93886719 5.79597656 5.19023437 6.52945313 5.44921875 7.28515625 C5.63097656 7.85105469 5.81273437 8.41695312 6 9 C5.34 9.66 4.68 10.32 4 11 C3.32880451 9.5437455 2.66318193 8.08492133 2 6.625 C1.62875 5.81289062 1.2575 5.00078125 0.875 4.1640625 C0 2 0 2 0 0 Z " fill="#435B3D" transform="translate(202,164)"/>
<path d="M0 0 C1.32 0.33 2.64 0.66 4 1 C1.69 3.31 -0.62 5.62 -3 8 C-3.99 7.67 -4.98 7.34 -6 7 C-4.71034824 5.62437146 -3.37310707 4.29233607 -2 3 C-1.34 3 -0.68 3 0 3 C0 2.01 0 1.02 0 0 Z " fill="#4F644C" transform="translate(128,288)"/>
<path d="M0 0 C-3.3 1.32 -6.6 2.64 -10 4 C-10.66 3.34 -11.32 2.68 -12 2 C-7.58416436 -0.94389043 -5.16552273 -1.29138068 0 0 Z " fill="#4A5D42" transform="translate(119,232)"/>
<path d="M0 0 C2.475 0.495 2.475 0.495 5 1 C5 1.66 5 2.32 5 3 C4.34 3 3.68 3 3 3 C3 4.32 3 5.64 3 7 C2.34 7 1.68 7 1 7 C0.67 4.69 0.34 2.38 0 0 Z " fill="#466140" transform="translate(176,231)"/>
<path d="M0 0 C3 1 3 1 4.75 3.875 C6 7 6 7 5 10 C2.81434857 7.81434857 1.45914246 5.71931095 0 3 C0 2.01 0 1.02 0 0 Z " fill="#445E3A" transform="translate(192,154)"/>
<path d="M0 0 C0 3 0 3 -1.53125 4.82421875 C-2.1809375 5.43910156 -2.830625 6.05398437 -3.5 6.6875 C-4.1496875 7.31011719 -4.799375 7.93273437 -5.46875 8.57421875 C-5.9740625 9.04472656 -6.479375 9.51523438 -7 10 C-7.66 9.67 -8.32 9.34 -9 9 C-7.87895467 7.68412059 -6.75303035 6.37239647 -5.625 5.0625 C-4.99851563 4.33160156 -4.37203125 3.60070312 -3.7265625 2.84765625 C-2 1 -2 1 0 0 Z " fill="#465840" transform="translate(243,102)"/>
<path d="M0 0 C0.66 0.33 1.32 0.66 2 1 C0.515 3.475 0.515 3.475 -1 6 C-0.34 6 0.32 6 1 6 C1 6.66 1 7.32 1 8 C-0.32 8.33 -1.64 8.66 -3 9 C-2.25 2.25 -2.25 2.25 0 0 Z " fill="#45593E" transform="translate(95,85)"/>
<path d="M0 0 C0.99 0.33 1.98 0.66 3 1 C1.68 3.64 0.36 6.28 -1 9 C-2.07349791 4.70600835 -1.79682816 3.80504787 0 0 Z " fill="#4B6147" transform="translate(90,253)"/>
<path d="M0 0 C2.97 0.99 5.94 1.98 9 3 C8.34 3.66 7.68 4.32 7 5 C4.36 4.01 1.72 3.02 -1 2 C-0.67 1.34 -0.34 0.68 0 0 Z " fill="#405A3B" transform="translate(119,177)"/>
<path d="M0 0 C0.66 0 1.32 0 2 0 C4.27678571 6.96428571 4.27678571 6.96428571 3 11 C2.49632243 9.54293274 1.99717444 8.08429904 1.5 6.625 C1.2215625 5.81289062 0.943125 5.00078125 0.65625 4.1640625 C0 2 0 2 0 0 Z " fill="#4A6246" transform="translate(116,108)"/>
<path d="M0 0 C-0.8125 2.4375 -0.8125 2.4375 -2 5 C-2.99 5.33 -3.98 5.66 -5 6 C-5.33 4.68 -5.66 3.36 -6 2 C-3 0 -3 0 0 0 Z " fill="#405E39" transform="translate(294,99)"/>
<path d="M0 0 C3.37503669 1.1858237 5.64722731 2.27573689 8 5 C4.79604584 5 2.90600261 4.25664978 0 3 C0 2.01 0 1.02 0 0 Z " fill="#43613C" transform="translate(160,242)"/>
<path d="M0 0 C0.33 0.66 0.66 1.32 1 2 C1.66 2 2.32 2 3 2 C2.1875 3.9375 2.1875 3.9375 1 6 C0.01 6.33 -0.98 6.66 -2 7 C-2 5.68 -2 4.36 -2 3 C-1.34 2.67 -0.68 2.34 0 2 C0 1.34 0 0.68 0 0 Z " fill="#53674E" transform="translate(333,201)"/>
<path d="M0 0 C3.465 1.485 3.465 1.485 7 3 C6.67 3.99 6.34 4.98 6 6 C3.36 4.68 0.72 3.36 -2 2 C-1.34 1.34 -0.68 0.68 0 0 Z " fill="#485F40" transform="translate(136,184)"/>
<path d="M0 0 C0.66 0.66 1.32 1.32 2 2 C-0.97 3.32 -3.94 4.64 -7 6 C-7 5.34 -7 4.68 -7 4 C-4.69 2.68 -2.38 1.36 0 0 Z " fill="#4A6243" transform="translate(304,184)"/>
<path d="M0 0 C1.9375 1.125 1.9375 1.125 4 3 C4.75 6.1875 4.75 6.1875 5 9 C1.64229123 6.76152748 1.7854035 6.59041601 1 3 C0.34 2.34 -0.32 1.68 -1 1 C-0.67 0.67 -0.34 0.34 0 0 Z " fill="#41583D" transform="translate(162,173)"/>
<path d="M0 0 C4.79280002 0.80904103 6.13520113 3.25984591 9 7 C6 7 6 7 4.39453125 5.46875 C3.87246094 4.8190625 3.35039062 4.169375 2.8125 3.5 C2.28269531 2.8503125 1.75289062 2.200625 1.20703125 1.53125 C0.80871094 1.0259375 0.41039062 0.520625 0 0 Z " fill="#495F44" transform="translate(179,132)"/>
<path d="M0 0 C0.99 0 1.98 0 3 0 C3.33 1.65 3.66 3.3 4 5 C2.02 4.34 0.04 3.68 -2 3 C-1.34 2.01 -0.68 1.02 0 0 Z " fill="#445539" transform="translate(166,221)"/>
<path d="M0 0 C2.9375 0.8125 2.9375 0.8125 6 2 C6.33 2.99 6.66 3.98 7 5 C4.11424181 4.60196439 3.17810487 4.20990931 1.25 1.9375 C0.8375 1.298125 0.425 0.65875 0 0 Z " fill="#536A4D" transform="translate(102,191)"/>
<path d="M0 0 C2.12508244 3.18762365 2.5020163 5.26512223 3 9 C2.01 8.67 1.02 8.34 0 8 C-0.79953138 4.71303767 -1.09658936 3.28976808 0 0 Z " fill="#485D44" transform="translate(201,168)"/>
<path d="M0 0 C2.94956528 1.36944102 5.52468811 2.87830409 8 5 C8 5.66 8 6.32 8 7 C4.2047869 5.50902342 2.38957269 3.24299151 0 0 Z " fill="#4B5E44" transform="translate(371,169)"/>
</svg>
